<?xml version="1.0" encoding="UTF-8"?>
<!-- Generated by Pixelmator Pro 3.4.3 -->
<svg width="1135" height="1290" viewBox="0 0 1135 1290" xmlns="http://www.w3.org/2000/svg">
    <path id="Path" fill="none" stroke="#3e495c" stroke-width="23.195101" stroke-linejoin="round" d="M 1113.400024 413.36792 L 748.719971 413.707031 L 748.719971 406.61792 C 748.719971 371.174072 735.76001 341.636963 709.829956 318.008057 C 683.910034 294.37793 644.430054 282.563965 591.406006 282.563965 C 539.557007 282.563965 499.492004 290.24292 471.210022 305.602051 M 612.617004 1278.550049 C 422.895996 1278.550049 275.007996 1246.650024 168.952026 1182.849976 C 64.075012 1119.050049 11.636993 1006.219971 11.636993 844.349976 L 381.062988 844.349976"/>
    <path id="path1" fill="none" stroke="#3e495c" stroke-width="23.195101" stroke-linejoin="round" d="M 591.515015 12.093018 C 754.130005 12.093018 883.76001 46.946045 980.380005 116.653076 C 1075.01001 184.092041 1119.72998 274.703003 1122.540039 411.049072"/>
    <path id="path2" fill="none" stroke="#238b8b" stroke-width="23.195101" stroke-linecap="round" d="M 20.914001 428.145996 C 20.914001 284.005981 69.816986 186.359985 167.624023 116.653076 C 264.252014 46.946045 393.875977 12.093018 556.494019 12.093018"/>
    <path id="path3" fill="none" stroke="#a9933d" stroke-width="9.27805" d="M 609.593994 1028.040039 C 656.209961 1028.040039 702.849976 1019.140015 733.01001 1004.839966 C 790.25 977.709961 795.290039 909.170044 774.76001 874.949951 C 753.880005 840.160034 730.300049 827.640015 695.890015 814.640015 C 662.589966 800.560059 596.153992 791.219971 519.609985 775.209961 C 426.375 755.719971 348.705017 735.47998 287.658997 714.900024 C 226.612 693.23999 173.119995 654.622986 127.612 605.888 C 82.105011 557.153076 58.027008 489.800049 58.027008 406.409912 C 58.027008 284.031006 109.911011 190.105957 206.476013 132.707031 C 304.150024 74.224976 428.866028 44.56604 577.598022 44.56604 C 724.109985 44.56604 845.099976 76.545044 939.439941 135.026978 C 1029.969971 195.108032 1078.609985 276.584961 1078.609985 387.854004 L 800.420044 390.026978 C 790.109985 390.10791 781.709961 381.776001 781.709961 371.470947 L 781.709961 332.185059"/>
    <path id="path4" fill="none" stroke="#238b8b" stroke-width="23.195101" stroke-linecap="round" stroke-linejoin="round" d="M 1122.680054 413.36792 L 748.719971 413.707031 L 748.719971 406.61792 C 748.719971 371.174072 735.76001 341.636963 709.829956 318.008057 C 683.910034 294.37793 644.430054 282.563965 591.406006 282.563965 C 539.557007 282.563965 499.492004 290.24292 471.210022 305.602051 M 1108.77002 858.709961 C 1108.77002 1002.849976 1100.050049 1089.140015 1001.48999 1173.98999 C 906.969971 1255.349976 775.23999 1278.550049 612.617004 1278.550049 M 11.636993 844.349976 L 381.062988 844.349976"/>
    <path id="path5" fill="#a9933d" stroke="none" d="M 804.905151 332.185059 C 804.905151 344.995361 794.520264 355.380127 781.709961 355.380127 C 768.899658 355.380127 758.514893 344.995361 758.514893 332.185059 C 758.514893 319.374756 768.899658 308.98999 781.709961 308.98999 C 794.520264 308.98999 804.905151 319.374756 804.905151 332.185059 Z"/>
    <path id="path6" fill="#6d0d0d" stroke="none" d="M 795.627075 332.185059 C 795.627075 339.871216 789.39624 346.102051 781.709961 346.102051 C 774.023804 346.102051 767.792847 339.871216 767.792847 332.185059 C 767.792847 324.498779 774.023804 318.267822 781.709961 318.267822 C 789.39624 318.267822 795.627075 324.498779 795.627075 332.185059 Z"/>
    <linearGradient id="linearGradient1" x1="171.683" y1="951.5" x2="586.876" y2="1188.09" gradientUnits="userSpaceOnUse">
        <stop offset="1e-05" stop-color="#6d0d0d" stop-opacity="1"/>
        <stop offset="0.447917" stop-color="#a9933d" stop-opacity="1"/>
        <stop offset="0.890625" stop-color="#238b8b" stop-opacity="1"/>
    </linearGradient>
    <path id="path7" fill="none" stroke="url(#linearGradient1)" stroke-width="102.058998" d="M 197.197998 937.959961 C 199.54303 1008.189941 274.132996 1148.650024 553.728027 1148.650024"/>
    <path id="path8" fill="none" stroke="#238b8b" stroke-width="13.9171" d="M 197.197998 937.959961 C 199.54303 1008.189941 274.132996 1148.650024 553.728027 1148.650024 C 858.26001 1148.650024 960.319946 1081.959961 960.319946 937.959961 C 960.319946 870.310059 951.040039 738.099976 767.180054 694.01001 C 661.599976 668.684998 424.505981 651.304016 317.809998 560.720947 C 305.416016 550.197998 294.617004 538.969971 285.338989 527.230957 M 933.709961 375.041992 C 933.709961 332.903076 921.869995 297.215088 879.77002 250.446045 C 797.949951 159.573975 476.825989 102.572021 303.893005 255.533936 C 257.554016 296.520996 233.888 360.63501 241.948975 424.966064"/>
    <linearGradient id="linearGradient2" x1="925.52" y1="1035" x2="835.06" y2="1181.13" gradientUnits="userSpaceOnUse">
        <stop offset="0.380208" stop-color="#3e495c" stop-opacity="1"/>
        <stop offset="0.567708" stop-color="#365d6a" stop-opacity="1"/>
        <stop offset="1" stop-color="#238b8b" stop-opacity="1"/>
    </linearGradient>
    <path id="path9" fill="none" stroke="url(#linearGradient2)" stroke-width="64.946297" d="M 197.197998 937.959961 C 199.54303 1008.189941 274.132996 1148.650024 553.728027 1148.650024 C 842.02002 1148.650024 939.439941 1102.26001 954.880005 975.079956"/>
    <path id="path10" fill="none" stroke="#3e495c" stroke-width="9.27805" d="M 197.197998 937.959961 C 199.54303 1008.189941 274.132996 1148.650024 553.728027 1148.650024"/>
    <linearGradient id="linearGradient3" x1="738" y1="493.5" x2="1043.82" y2="821.6" gradientUnits="userSpaceOnUse">
        <stop offset="1e-05" stop-color="#a9933d" stop-opacity="1"/>
        <stop offset="0.328125" stop-color="#238b8b" stop-opacity="1"/>
        <stop offset="0.776042" stop-color="#330a0a" stop-opacity="1"/>
    </linearGradient>
    <path id="path11" fill="none" stroke="url(#linearGradient3)" stroke-width="46.390202" stroke-linecap="round" d="M 1052.300049 867.150024 C 1052.300049 800.72998 983.51001 670.012024 850.680054 623.197021 C 702.849976 571.094971 637.900024 605.888 424.51001 513.106934"/>
    <path id="path12" fill="#238b8b" stroke="none" d="M 438.382019 481.199951 C 420.76001 473.538086 400.263977 481.613037 392.60199 499.234985 C 384.940002 516.856934 393.015015 537.353027 410.637024 545.015015 L 438.382019 481.199951 Z M 552.156006 594.815002 L 585.708984 604.02002 L 604.117981 536.914063 L 570.565002 527.708984 L 552.156006 594.815002 Z M 570.565002 527.708984 C 523.307983 514.744995 488.15802 502.842041 438.382019 481.199951 L 410.637024 545.015015 C 463.700012 568.085938 501.994019 581.054993 552.156006 594.815002 L 570.565002 527.708984 Z"/>
    <linearGradient id="linearGradient4" x1="216.855" y1="934.32" x2="876.59" y2="938.07" gradientUnits="userSpaceOnUse">
        <stop offset="1e-05" stop-color="#238b8b" stop-opacity="1"/>
        <stop offset="1" stop-color="#3e495c" stop-opacity="1"/>
    </linearGradient>
    <path id="path13" fill="none" stroke="url(#linearGradient4)" stroke-width="13.9171" stroke-linecap="round" d="M 846.660034 963.089966 C 846.660034 896.660034 869.859985 814.640015 675.02002 763.609985 C 610.763 746.790039 361.882996 717.219971 252.866028 624.44397"/>
    <linearGradient id="linearGradient5" x1="771.42" y1="615.166" x2="919.73" y2="942.52" gradientUnits="userSpaceOnUse">
        <stop offset="0.128691" stop-color="#a9933d" stop-opacity="1"/>
        <stop offset="0.724811" stop-color="#3e495c" stop-opacity="1"/>
    </linearGradient>
    <path id="path14" fill="none" stroke="url(#linearGradient5)" stroke-width="27.834101" stroke-linecap="round" d="M 920.810059 963.089966 C 920.810059 896.660034 930.290039 770.900024 740.599976 731.140015 C 674.209961 717.219971 396.78302 684.750977 285.338989 591.971008"/>
    <linearGradient id="linearGradient6" x1="90.003" y1="401.771" x2="1232.69" y2="401.771" gradientUnits="userSpaceOnUse">
        <stop offset="0.546875" stop-color="#3e495c" stop-opacity="1"/>
        <stop offset="1" stop-color="#6d0d0d" stop-opacity="1"/>
    </linearGradient>
    <path id="path15" fill="none" stroke="url(#linearGradient6)" stroke-width="176.283005" d="M 934.800049 378.575928 C 934.800049 336.437012 917.839966 289.801025 872.180054 246.363037 C 777.079956 155.901978 477.622009 102.572021 304.109985 255.533936 C 265.471008 289.596924 238.948975 350.740967 238.948975 401.770996"/>
    <path id="path16" fill="#f8f2bf" stroke="none" d="M 320.132019 269.559082 L 361.473022 322.906982 L 392.036011 299.009033 L 346.192017 244.043945 L 320.132019 269.559082 Z"/>
    <linearGradient id="linearGradient7" x1="90.5" y1="401.771" x2="1229.38" y2="401.771" gradientUnits="userSpaceOnUse">
        <stop offset="0.135417" stop-color="#6d0d0d" stop-opacity="1"/>
        <stop offset="0.515625" stop-color="#238b8b" stop-opacity="1"/>
        <stop offset="0.807292" stop-color="#a9933d" stop-opacity="1"/>
    </linearGradient>
    <path id="path17" fill="none" stroke="url(#linearGradient7)" stroke-width="64.946297" d="M 934.800049 378.575928 C 934.800049 336.437012 921.869995 297.215088 879.77002 250.446045 C 797.949951 159.573975 476.825989 102.572021 303.893005 255.533936 C 265.382019 289.596924 238.948975 350.740967 238.948975 401.770996"/>
    <linearGradient id="linearGradient8" x1="189.951" y1="227.58" x2="1002.42" y2="241.409" gradientUnits="userSpaceOnUse">
        <stop offset="0.380208" stop-color="#e1dfc6" stop-opacity="1"/>
        <stop offset="1" stop-color="#395766" stop-opacity="1"/>
    </linearGradient>
    <path id="path18" fill="none" stroke="url(#linearGradient8)" stroke-width="60.307301" stroke-linecap="round" d="M 234.309998 239.405029 C 321.190979 142.187988 452.661011 102.536987 579.916992 100.332031 C 746.75 97.44104 867.540039 141.984985 951.040039 239.405029"/>
    <linearGradient id="linearGradient9" x1="192.558" y1="225.488" x2="999.75" y2="239.405" gradientUnits="userSpaceOnUse">
        <stop offset="1e-05" stop-color="#a9933d" stop-opacity="1"/>
        <stop offset="1" stop-color="#3e495c" stop-opacity="1"/>
    </linearGradient>
    <path id="path19" fill="none" stroke="url(#linearGradient9)" stroke-width="27.834101" stroke-linecap="round" d="M 236.629028 237.084961 C 436.106995 16.731934 839.699951 88.636963 946.400024 237.084961"/>
    <linearGradient id="linearGradient10" x1="271.13" y1="307.776" x2="912.12" y2="319.638" gradientUnits="userSpaceOnUse">
        <stop offset="1e-05" stop-color="#a9933d" stop-opacity="1"/>
        <stop offset="1" stop-color="#238c8c" stop-opacity="1"/>
    </linearGradient>
    <path id="path20" fill="none" stroke="url(#linearGradient10)" stroke-width="27.834101" stroke-linecap="square" d="M 345.645996 281.156006 C 482.497009 167.5 774.76001 195.333984 854.180054 290.010986 C 869.859985 308.703003 888.410034 340.508057 888.410034 364.658936"/>
    <path id="path21" fill="none" stroke="#238b8b" stroke-width="9.27805" d="M 122.972992 295.072998 C 104.419006 329.865967 109.056 366.978027 109.056 383.213989"/>
    <path id="path22" fill="none" stroke="#3e495c" stroke-width="4.63902" stroke-linecap="round" d="M 166.741028 593.630005 C 166.741028 593.630005 185.296997 619.14502 233.994019 653.937012"/>
    <linearGradient id="linearGradient11" x1="-96.55" y1="120.768" x2="1555.81" y2="1222.63" gradientUnits="userSpaceOnUse">
        <stop offset="1e-05" stop-color="#6d0d0d" stop-opacity="1"/>
        <stop offset="1" stop-color="#fff36c" stop-opacity="1"/>
    </linearGradient>
    <path id="path23" fill="none" stroke="url(#linearGradient11)" stroke-width="9.27805" d="M 197.198975 179.098022 L 160.085999 230.126953 L 113.696014 276.51709"/>
    <path id="path24" fill="none" stroke="#f8f2bf" stroke-width="9.27805" d="M 197.198975 179.098022 L 160.085022 230.126953 L 150.807983 295.072998"/>
    <path id="path25" fill="none" stroke="#a9933d" stroke-width="13.9171" stroke-linecap="round" d="M 299.255981 401.770996 C 299.255981 435.078003 272.255981 462.078003 238.948975 462.078003 C 205.642029 462.078003 178.642029 435.078003 178.642029 401.770996"/>
    <path id="path26" fill="none" stroke="#3e495c" stroke-width="9.27805" d="M 151.705017 602.700989 C 146.085022 595.203003 147.606995 584.570007 155.104004 578.950989 C 162.60199 573.330994 173.234985 574.853027 178.854004 582.349976"/>
    <path id="path27" fill="none" stroke="#3e495c" stroke-width="9.27805" d="M 63.791992 1010.390015 C 60.647003 997.97998 68.164001 985.359985 80.583008 982.209961 C 93.001007 979.069946 105.617004 986.589966 108.763 999"/>
    <path id="path28" fill="none" stroke="#3e495c" stroke-width="46.390202" stroke-linecap="round" d="M 368.841003 406.409912 C 368.841003 478.147949 310.687012 536.302979 238.948975 536.302979 C 167.210999 536.302979 109.056 478.147949 109.056 406.409912"/>
    <path id="path29" fill="none" stroke="#a9933d" stroke-width="13.9171" stroke-linecap="round" d="M 368.841003 406.409912 C 368.841003 478.147949 310.687012 536.302979 238.948975 536.302979 C 167.210999 536.302979 109.056 478.147949 109.056 406.409912"/>
    <path id="path30" fill="#238b8b" stroke="none" d="M 271.42218 401.770996 C 271.42218 419.705444 256.883423 434.244141 238.948975 434.244141 C 221.014526 434.244141 206.47583 419.705444 206.47583 401.770996 C 206.47583 383.836548 221.014526 369.297852 238.948975 369.297852 C 256.883423 369.297852 271.42218 383.836548 271.42218 401.770996 Z"/>
    <path id="path31" fill="#a9933d" stroke="none" d="M 262.144104 401.770996 C 262.144104 414.581299 251.759277 424.966064 238.948975 424.966064 C 226.138672 424.966064 215.753906 414.581299 215.753906 401.770996 C 215.753906 388.960693 226.138672 378.575928 238.948975 378.575928 C 251.759277 378.575928 262.144104 388.960693 262.144104 401.770996 Z"/>
    <path id="path32" fill="#3e495c" stroke="none" d="M 238.94812 1004.839966 C 238.94812 1017.650269 228.563293 1028.035156 215.752991 1028.035156 C 202.942688 1028.035156 192.557922 1017.650269 192.557922 1004.839966 C 192.557922 992.029663 202.942688 981.644897 215.752991 981.644897 C 228.563293 981.644897 238.94812 992.029663 238.94812 1004.839966 Z"/>
    <path id="path33" fill="#238b8b" stroke="none" d="M 225.032043 1004.839966 C 225.032043 1009.964111 220.878113 1014.118042 215.754028 1014.118042 C 210.629883 1014.118042 206.475952 1009.964111 206.475952 1004.839966 C 206.475952 999.71582 210.629883 995.56189 215.754028 995.56189 C 220.878113 995.56189 225.032043 999.71582 225.032043 1004.839966 Z"/>
    <path id="path34" fill="#000000" stroke="none" d="M 127.612122 406.409912 C 127.612122 416.658203 119.30426 424.966064 109.056 424.966064 C 98.807739 424.966064 90.499908 416.658203 90.499908 406.409912 C 90.499908 396.161743 98.807739 387.853882 109.056 387.853882 C 119.30426 387.853882 127.612122 396.161743 127.612122 406.409912 Z"/>
    <path id="path35" fill="#a9933d" stroke="none" d="M 118.334045 406.409912 C 118.334045 411.53418 114.180115 415.687988 109.056 415.687988 C 103.931885 415.687988 99.777954 411.53418 99.777954 406.409912 C 99.777954 401.285889 103.931885 397.131958 109.056 397.131958 C 114.180115 397.131958 118.334045 401.285889 118.334045 406.409912 Z"/>
    <path id="path36" fill="#f8f2bf" stroke="none" d="M 211.115112 179.098022 C 211.115112 186.78418 204.884216 193.015137 197.197998 193.015137 C 189.51178 193.015137 183.280884 186.78418 183.280884 179.098022 C 183.280884 171.411865 189.51178 165.180908 197.197998 165.180908 C 204.884216 165.180908 211.115112 171.411865 211.115112 179.098022 Z"/>
    <path id="path37" fill="#000000" stroke="none" d="M 387.397095 406.409912 C 387.397095 416.658203 379.089233 424.966064 368.841003 424.966064 C 358.592773 424.966064 350.284912 416.658203 350.284912 406.409912 C 350.284912 396.161743 358.592773 387.853882 368.841003 387.853882 C 379.089233 387.853882 387.397095 396.161743 387.397095 406.409912 Z"/>
    <path id="path38" fill="#a9933d" stroke="none" d="M 378.11908 406.409912 C 378.11908 411.53418 373.965149 415.687988 368.841003 415.687988 C 363.716858 415.687988 359.562927 411.53418 359.562927 406.409912 C 359.562927 401.285889 363.716858 397.131958 368.841003 397.131958 C 373.965149 397.131958 378.11908 401.285889 378.11908 406.409912 Z"/>
    <path id="path39" fill="#238b8b" stroke="none" d="M 101.528992 270.323975 C 105.05899 263.495972 113.454987 260.822021 120.28299 264.352051 L 156.343994 282.991943 C 163.171997 286.521973 165.846008 294.917969 162.315979 301.745972 C 158.786987 308.573975 150.390015 311.248047 143.562988 307.718018 L 107.502014 289.078003 C 100.674011 285.547974 98 277.151978 101.528992 270.323975 Z"/>
    <path id="path40" fill="#000000" stroke="none" d="M 122.973053 276.51709 C 122.973053 281.641113 118.819122 285.795044 113.695007 285.795044 C 108.570862 285.795044 104.416962 281.641113 104.416962 276.51709 C 104.416962 271.392822 108.570862 267.239014 113.695007 267.239014 C 118.819122 267.239014 122.973053 271.392822 122.973053 276.51709 Z"/>
    <path id="path41" fill="#000000" stroke="none" d="M 160.085022 295.072998 C 160.085022 300.197144 155.931152 304.351074 150.807007 304.351074 C 145.682861 304.351074 141.528931 300.197144 141.528931 295.072998 C 141.528931 289.948853 145.682861 285.794922 150.807007 285.794922 C 155.931152 285.794922 160.085022 289.948853 160.085022 295.072998 Z"/>
    <path id="path42" fill="#000000" stroke="none" d="M 206.476074 179.098022 C 206.476074 184.222168 202.322144 188.375977 197.197998 188.375977 C 192.073853 188.375977 187.919922 184.222168 187.919922 179.098022 C 187.919922 173.973877 192.073853 169.819946 197.197998 169.819946 C 202.322144 169.819946 206.476074 173.973877 206.476074 179.098022 Z"/>
    <path id="path43" fill="#e1dfc6" stroke="#000000" stroke-width="13.9171" d="M 1050.780029 793.765076 C 1090.491943 793.765076 1122.684937 825.958069 1122.684937 865.669983 C 1122.684937 905.382019 1090.491943 937.57489 1050.780029 937.57489 C 1011.067993 937.57489 978.875122 905.382019 978.875122 865.669983 C 978.875122 825.958069 1011.067993 793.765076 1050.780029 793.765076 Z"/>
    <path id="path44" fill="none" stroke="#3e495c" stroke-width="9.27805" d="M 1101.810059 865.670044 C 1101.810059 837.48999 1078.959961 814.640015 1050.780029 814.640015 C 1022.599976 814.640015 999.75 837.48999 999.75 865.670044"/>
    <path id="path45" fill="#238c8c" stroke="#000000" stroke-width="9.27805" d="M 1050.780029 833.196838 C 1068.714478 833.196838 1083.253174 847.735535 1083.253174 865.669983 C 1083.253174 883.604431 1068.714478 898.14325 1050.780029 898.14325 C 1032.845581 898.14325 1018.306763 883.604431 1018.306763 865.669983 C 1018.306763 847.735535 1032.845581 833.196838 1050.780029 833.196838 Z"/>
    <path id="path46" fill="#3e495c" stroke="#a9933d" stroke-width="9.27805" d="M 842.02002 861.037781 C 862.516479 861.037781 879.132202 877.653503 879.132202 898.149963 C 879.132202 918.646545 862.516479 935.262146 842.02002 935.262146 C 821.523438 935.262146 804.907837 918.646545 804.907837 898.149963 C 804.907837 877.653503 821.523438 861.037781 842.02002 861.037781 Z"/>
    <path id="path47" fill="#002976" fill-opacity="0.18" stroke="none" d="M 554.401978 1116.180054 L 586.875183 1116.180054 L 586.875183 1181.126343 L 554.401978 1181.126343 Z"/>
    <path id="path48" fill="#238b8b" stroke="none" d="M 535.84613 1088.349976 L 545.124084 1088.349976 C 555.372375 1088.349976 563.680176 1096.657837 563.680176 1106.906128 L 563.680176 1190.408936 C 563.680176 1200.657104 555.372375 1208.964966 545.124084 1208.964966 L 535.84613 1208.964966 C 525.597839 1208.964966 517.289978 1200.657104 517.289978 1190.408936 L 517.289978 1106.906128 C 517.289978 1096.657837 525.597839 1088.349976 535.84613 1088.349976 Z"/>
    <path id="path49" fill="#e1dfc6" stroke="none" d="M 554.4021 1106.900024 C 554.4021 1114.586182 548.171204 1120.817139 540.484985 1120.817139 C 532.798828 1120.817139 526.567871 1114.586182 526.567871 1106.900024 C 526.567871 1099.213745 532.798828 1092.98291 540.484985 1092.98291 C 548.171204 1092.98291 554.4021 1099.213745 554.4021 1106.900024 Z"/>
    <path id="path50" fill="#e1dfc6" stroke="none" d="M 554.4021 1148.650024 C 554.4021 1156.336182 548.171204 1162.567139 540.484985 1162.567139 C 532.798828 1162.567139 526.567871 1156.336182 526.567871 1148.650024 C 526.567871 1140.963745 532.798828 1134.73291 540.484985 1134.73291 C 548.171204 1134.73291 554.4021 1140.963745 554.4021 1148.650024 Z"/>
    <path id="path51" fill="#e1dfc6" stroke="none" d="M 554.4021 1190.400024 C 554.4021 1198.086182 548.171204 1204.317139 540.484985 1204.317139 C 532.798828 1204.317139 526.567871 1198.086182 526.567871 1190.400024 C 526.567871 1182.713745 532.798828 1176.48291 540.484985 1176.48291 C 548.171204 1176.48291 554.4021 1182.713745 554.4021 1190.400024 Z"/>
    <path id="path52" fill="#000000" stroke="none" d="M 553.99707 570.586853 C 545.569275 580.352356 530.82074 581.436829 521.055176 573.009033 C 511.289673 564.581299 510.2052 549.832642 518.632935 540.067139 C 527.06073 530.301636 541.809265 529.217163 551.574829 537.64502 C 561.340332 546.072754 562.424805 560.821289 553.99707 570.586853 Z"/>
    <path id="path53" fill="#a9933d" stroke="none" d="M 543.790833 561.778809 C 540.227661 565.907471 533.992065 566.365967 529.863281 562.802856 C 525.734497 559.239624 525.276001 553.004028 528.839172 548.875244 C 532.402344 544.74646 538.637939 544.287964 542.766724 547.851196 C 546.895508 551.414429 547.354004 557.650024 543.790833 561.778809 Z"/>
    <path id="path54" fill="#238b8b" stroke="none" d="M 288.840393 568.84375 L 296.678528 573.808105 C 305.336304 579.291626 307.909607 590.755432 302.426086 599.413269 L 254.360535 675.303101 C 248.877014 683.960999 237.413208 686.534241 228.755432 681.05072 L 220.917297 676.086365 C 212.25946 670.602844 209.686157 659.139099 215.169678 650.481262 L 263.235229 574.59137 C 268.71875 565.933594 280.182556 563.360229 288.840393 568.84375 Z"/>
    <path id="path55" fill="#e1dfc6" stroke="none" d="M 292.894287 597.121582 C 288.781616 603.614929 280.183777 605.544922 273.69043 601.432312 C 267.197021 597.319641 265.26709 588.721802 269.3797 582.228394 C 273.492371 575.735046 282.09021 573.805054 288.583618 577.917725 C 295.076965 582.030334 297.006958 590.628174 292.894287 597.121582 Z"/>
    <path id="path56" fill="#e1dfc6" stroke="none" d="M 270.556274 632.393616 C 266.443665 638.886963 257.845825 640.816956 251.352417 636.704285 C 244.85907 632.591614 242.929077 623.993774 247.041687 617.500427 C 251.154358 611.007019 259.752197 609.077087 266.245605 613.189697 C 272.739014 617.302368 274.668945 625.900208 270.556274 632.393616 Z"/>
    <path id="path57" fill="#e1dfc6" stroke="none" d="M 248.216309 667.665588 C 244.103638 674.158997 235.505798 676.088928 229.01239 671.976318 C 222.519043 667.863708 220.58905 659.265747 224.70166 652.7724 C 228.814331 646.278992 237.412231 644.34906 243.905579 648.46167 C 250.398987 652.574341 252.328918 661.17218 248.216309 667.665588 Z"/>
    <path id="path58" fill="#e1dfc6" stroke="none" d="M 172.129395 598.508789 C 169.110718 602.006653 163.828064 602.395081 160.3302 599.376404 C 156.832397 596.357727 156.443909 591.075073 159.462585 587.577209 C 162.481262 584.079346 167.763977 583.690918 171.261841 586.709595 C 174.759644 589.728271 175.148071 595.010925 172.129395 598.508789 Z"/>
    <path id="path59" fill="none" stroke="#3e495c" stroke-width="9.27805" stroke-linecap="round" d="M 627.630005 1040.839966 C 620.940002 1051.76001 606.659973 1055.189941 595.737976 1048.5 C 584.815002 1041.810059 581.385986 1027.530029 588.080017 1016.599976"/>
    <path id="path60" fill="#a9933d" stroke="none" d="M 619.723328 1035.991699 C 615.707214 1042.545288 607.138916 1044.602295 600.585327 1040.586182 C 594.031738 1036.570313 591.97467 1028.001953 595.990723 1021.448303 C 600.006714 1014.894775 608.575134 1012.837646 615.128662 1016.853699 C 621.682251 1020.86969 623.739319 1029.43811 619.723328 1035.991699 Z"/>
    <path id="path61" fill="#3e495c" stroke="none" d="M 474.910522 1029.394775 C 472.588318 1033.184204 467.633789 1034.373779 463.844238 1032.051514 C 460.054688 1029.72937 458.865234 1024.774658 461.1875 1020.985168 C 463.509644 1017.19574 468.464233 1016.006226 472.253784 1018.32843 C 476.043274 1020.650696 477.232727 1025.605225 474.910522 1029.394775 Z"/>
    <path id="path62" fill="none" stroke="#3e495c" stroke-width="4.63902" stroke-linecap="round" d="M 584.55603 1028.040039 C 556.721008 1029.589966 495.021973 1030.819946 470.898987 1023.400024"/>
    <linearGradient id="linearGradient12" x1="1092.53" y1="963.09" x2="793.31" y2="963.09" gradientUnits="userSpaceOnUse">
        <stop offset="1e-05" stop-color="#238b8b" stop-opacity="1"/>
        <stop offset="0.65625" stop-color="#3e495c" stop-opacity="1"/>
    </linearGradient>
    <path id="path63" fill="url(#linearGradient12)" stroke="none" d="M 804.910034 963.089966 L 1073.969971 963.089966 L 1073.969971 990.930054 C 1073.969971 1024.22998 1046.969971 1051.22998 1013.670044 1051.22998 L 865.219971 1051.22998 C 831.910034 1051.22998 804.910034 1024.22998 804.910034 990.930054 L 804.910034 963.089966 Z"/>
    <path id="path64" fill="none" stroke="#3e495c" stroke-width="9.27805" d="M 628.627075 1236.800049 C 628.627075 1249.610352 618.24231 1259.995117 605.432007 1259.995117 C 592.621704 1259.995117 582.236877 1249.610352 582.236877 1236.800049 C 582.236877 1223.989746 592.621704 1213.604858 605.432007 1213.604858 C 618.24231 1213.604858 628.627075 1223.989746 628.627075 1236.800049 Z"/>
    <path id="path65" fill="#a9933d" stroke="none" d="M 619.928833 1236.782959 C 620.264099 1244.461792 614.310913 1250.958618 606.63208 1251.293945 C 598.953186 1251.62915 592.456421 1245.675903 592.121155 1237.99707 C 591.785889 1230.318237 597.739075 1223.821411 605.417969 1223.486084 C 613.096802 1223.150879 619.593567 1229.104126 619.928833 1236.782959 Z"/>
    <path id="path66" fill="none" stroke="#a9933d" stroke-width="9.27805" d="M 605.432007 1236.800049 C 705.170044 1236.800049 770.119995 1225.459961 821.150024 1211.280029 C 904.650024 1188.089966 1018.300049 1141.699951 1009.030029 1004.839966"/>
    <path id="path67" fill="none" stroke="#a9933d" stroke-width="9.27805" d="M 596 1237 C 466.820984 1237 414.070984 1228.310059 338.965027 1207.349976 C 271.309998 1188.459961 124.497009 1147.640015 86 1000"/>
    <path id="path68" fill="#3e495c" stroke="none" d="M 600.791992 1051.22998 L 610.070068 1051.22998 L 610.070068 1213.595947 L 600.791992 1213.595947 Z"/>
    <path id="path69" fill="#238b8b" stroke="#000000" stroke-width="13.9171" d="M 890.735596 1004.839966 C 890.735596 1016.369263 881.389282 1025.715576 869.859985 1025.715576 C 858.330688 1025.715576 848.984375 1016.369263 848.984375 1004.839966 C 848.984375 993.310669 858.330688 983.964355 869.859985 983.964355 C 881.389282 983.964355 890.735596 993.310669 890.735596 1004.839966 Z"/>
    <path id="path70" fill="none" stroke="#000000" stroke-width="9.27805" d="M 1032.225098 1004.839966 C 1032.225098 1017.650269 1021.840332 1028.035156 1009.030029 1028.035156 C 996.219727 1028.035156 985.834961 1017.650269 985.834961 1004.839966 C 985.834961 992.029663 996.219727 981.644897 1009.030029 981.644897 C 1021.840332 981.644897 1032.225098 992.029663 1032.225098 1004.839966 Z"/>
    <path id="path71" fill="#6d0d0d" stroke="#a9933d" stroke-width="9.27805" d="M 1027.58606 1004.839966 C 1027.58606 1015.088257 1019.278198 1023.396118 1009.030029 1023.396118 C 998.781738 1023.396118 990.473877 1015.088257 990.473877 1004.839966 C 990.473877 994.591797 998.781738 986.283936 1009.030029 986.283936 C 1019.278198 986.283936 1027.58606 994.591797 1027.58606 1004.839966 Z"/>
    <path id="path72" fill="#238b8b" stroke="none" d="M 44 873 L 342.833008 873 C 356.445984 920.599976 320.703979 968 271.192017 968 L 120.671997 968 C 82.539001 968 50.609985 939.099976 46.81601 901.160034 L 44 873 Z"/>
    <path id="path73" fill="none" stroke="#a9933d" stroke-width="9.27805" stroke-linejoin="round" d="M 48.963989 870.310059 L 341.213013 870.310059 L 342.784973 904.900024 C 344.226013 936.599976 318.911011 963.089966 287.174988 963.089966 L 97.510986 963.089966 C 72.709991 963.089966 52.295013 943.579956 51.169006 918.810059 L 48.963989 870.310059 Z"/>
    <path id="path74" fill="#e1dfc6" stroke="none" d="M 104.417114 888.869995 L 289.977905 888.869995 C 305.35022 888.869995 317.812012 901.331787 317.812012 916.704102 L 317.812012 916.704224 C 317.812012 932.076538 305.35022 944.53833 289.977905 944.53833 L 104.417114 944.53833 C 89.044739 944.53833 76.583008 932.076538 76.583008 916.704224 L 76.583008 916.704102 C 76.583008 901.331787 89.044739 888.869995 104.417114 888.869995 Z"/>
    <path id="path75" fill="#e1dfc6" stroke="#3e495c" stroke-width="9.27805" d="M 118.334015 916.699951 C 118.334015 921.829956 114.179993 925.97998 109.056 925.97998 C 103.932007 925.97998 99.778015 921.829956 99.778015 916.699951 C 99.778015 911.579956 103.932007 907.420044 109.056 907.420044 C 114.179993 907.420044 118.334015 911.579956 118.334015 916.699951 Z"/>
    <path id="path76" fill="#e1dfc6" stroke="#3e495c" stroke-width="9.27805" d="M 299.256042 916.699951 C 299.256042 921.824097 295.102112 925.978027 289.978027 925.978027 C 284.853882 925.978027 280.699951 921.824097 280.699951 916.699951 C 280.699951 911.575928 284.853882 907.421997 289.978027 907.421997 C 295.102112 907.421997 299.256042 911.575928 299.256042 916.699951 Z"/>
    <path id="path77" fill="none" stroke="#3e495c" stroke-width="4.63902" d="M 109.056 905.099976 L 289.978027 905.099976"/>
    <path id="path78" fill="none" stroke="#3e495c" stroke-width="4.63902" d="M 109.056 928.300049 L 289.978027 928.300049"/>
    <path id="path79" fill="#a9933d" stroke="none" d="M 99.778107 1004.839966 C 99.778107 1012.526245 93.547211 1018.75708 85.860992 1018.75708 C 78.174805 1018.75708 71.943909 1012.526245 71.943909 1004.839966 C 71.943909 997.153809 78.174805 990.922852 85.860992 990.922852 C 93.547211 990.922852 99.778107 997.153809 99.778107 1004.839966 Z"/>
    <path id="path80" fill="#000000" stroke="none" d="M 577.911011 529.102051 L 582.391785 530.303467 L 564.209839 598.110535 L 559.729126 596.909058 Z"/>
    <path id="path81" fill="#000000" stroke="none" d="M 599.908997 535.369019 L 604.39447 536.552612 L 586.086243 605.935913 L 581.600708 604.752319 Z"/>
    <path id="path82" fill="#238b8b" stroke="none" d="M 888.410034 355.380981 C 888.410034 347.69397 894.640015 341.463989 902.329956 341.463989 L 1018.300049 341.463989 C 1025.98999 341.463989 1032.219971 347.69397 1032.219971 355.380981 L 1032.219971 378.575928 L 888.410034 378.575928 L 888.410034 355.380981 Z"/>
</svg>
